<svg width="100" height="100" viewBox="0 0 100 100" fill="none" xmlns="http://www.w3.org/2000/svg">
	<path stroke="yellow" stroke-width="5"
		d="M51.8466 10.0438L61.5982 33.4893C62.1742 34.8742 63.4766 35.8205 64.9718 35.9403L90.2831 37.9695C92.0564 38.1117 92.7755 40.3247 91.4244 41.4821L72.1398 58.0013C71.0007 58.9772 70.5032 60.5083 70.8512 61.9673L76.743 86.6669C77.1558 88.3973 75.2732 89.765 73.7551 88.8377L52.085 75.6017C50.805 74.8199 49.195 74.8199 47.915 75.6017L26.245 88.8377C24.7268 89.765 22.8442 88.3973 23.257 86.6669L29.1488 61.9673C29.4968 60.5083 28.9993 58.9772 27.8602 58.0014L8.5756 41.4821C7.22452 40.3247 7.94358 38.1117 9.71689 37.9695L35.0282 35.9403C36.5234 35.8205 37.8258 34.8742 38.4018 33.4893L48.1534 10.0438C48.8365 8.40123 51.1635 8.40123 51.8466 10.0438Z" />
</svg>
